<mxfile host="app.diagrams.net" agent="Mozilla/5.0 (Windows NT 10.0; Win64; x64) AppleWebKit/537.36 (KHTML, like Gecko) Chrome/131.0.0.0 Safari/537.36" version="26.0.5" pages="2">
  <diagram name="PÃ¡gina-1" id="_RODmPlyJp-3UycC2ijV">
    <mxGraphModel dx="712" dy="279" grid="1" gridSize="10" guides="1" tooltips="1" connect="1" arrows="1" fold="1" page="1" pageScale="1" pageWidth="1169" pageHeight="827" math="0" shadow="0">
      <root>
        <mxCell id="0" />
        <mxCell id="1" parent="0" />
        <mxCell id="NZe3pGpmIBCSkbg1R9vZ-15" style="edgeStyle=orthogonalEdgeStyle;rounded=0;orthogonalLoop=1;jettySize=auto;html=1;entryX=1;entryY=0.5;entryDx=0;entryDy=0;endArrow=none;endFill=0;" parent="1" source="NZe3pGpmIBCSkbg1R9vZ-1" target="NZe3pGpmIBCSkbg1R9vZ-12" edge="1">
          <mxGeometry relative="1" as="geometry" />
        </mxCell>
        <mxCell id="hS6ivuc_pdptiDYRLIXN-13" style="edgeStyle=orthogonalEdgeStyle;rounded=0;orthogonalLoop=1;jettySize=auto;html=1;entryX=1;entryY=0.5;entryDx=0;entryDy=0;endArrow=none;startFill=0;exitX=0;exitY=0.75;exitDx=0;exitDy=0;" parent="1" source="NZe3pGpmIBCSkbg1R9vZ-1" target="hS6ivuc_pdptiDYRLIXN-12" edge="1">
          <mxGeometry relative="1" as="geometry">
            <Array as="points">
              <mxPoint x="810" y="330" />
              <mxPoint x="810" y="380" />
            </Array>
          </mxGeometry>
        </mxCell>
        <mxCell id="hS6ivuc_pdptiDYRLIXN-22" style="edgeStyle=orthogonalEdgeStyle;rounded=0;orthogonalLoop=1;jettySize=auto;html=1;exitX=0;exitY=0.25;exitDx=0;exitDy=0;entryX=1;entryY=0.5;entryDx=0;entryDy=0;endArrow=none;startFill=0;" parent="1" source="NZe3pGpmIBCSkbg1R9vZ-1" target="hS6ivuc_pdptiDYRLIXN-20" edge="1">
          <mxGeometry relative="1" as="geometry">
            <Array as="points">
              <mxPoint x="810" y="310" />
              <mxPoint x="810" y="260" />
            </Array>
          </mxGeometry>
        </mxCell>
        <mxCell id="NZe3pGpmIBCSkbg1R9vZ-1" value="Video" style="whiteSpace=wrap;html=1;align=center;" parent="1" vertex="1">
          <mxGeometry x="900" y="300" width="80" height="40" as="geometry" />
        </mxCell>
        <mxCell id="hS6ivuc_pdptiDYRLIXN-18" style="edgeStyle=orthogonalEdgeStyle;rounded=0;orthogonalLoop=1;jettySize=auto;html=1;entryX=0.5;entryY=0;entryDx=0;entryDy=0;endArrow=none;startFill=0;" parent="1" source="NZe3pGpmIBCSkbg1R9vZ-3" target="NZe3pGpmIBCSkbg1R9vZ-25" edge="1">
          <mxGeometry relative="1" as="geometry" />
        </mxCell>
        <mxCell id="NZe3pGpmIBCSkbg1R9vZ-3" value="Comment" style="whiteSpace=wrap;html=1;align=center;" parent="1" vertex="1">
          <mxGeometry x="490" y="360" width="80" height="40" as="geometry" />
        </mxCell>
        <mxCell id="NZe3pGpmIBCSkbg1R9vZ-41" style="edgeStyle=orthogonalEdgeStyle;rounded=0;orthogonalLoop=1;jettySize=auto;html=1;entryX=0.5;entryY=1;entryDx=0;entryDy=0;endArrow=none;endFill=0;" parent="1" source="NZe3pGpmIBCSkbg1R9vZ-4" target="NZe3pGpmIBCSkbg1R9vZ-34" edge="1">
          <mxGeometry relative="1" as="geometry" />
        </mxCell>
        <mxCell id="NZe3pGpmIBCSkbg1R9vZ-4" value="Watch" style="whiteSpace=wrap;html=1;align=center;" parent="1" vertex="1">
          <mxGeometry x="490" y="240" width="80" height="40" as="geometry" />
        </mxCell>
        <mxCell id="NZe3pGpmIBCSkbg1R9vZ-22" style="edgeStyle=orthogonalEdgeStyle;rounded=0;orthogonalLoop=1;jettySize=auto;html=1;entryX=1;entryY=0.5;entryDx=0;entryDy=0;endArrow=none;endFill=0;" parent="1" source="NZe3pGpmIBCSkbg1R9vZ-5" target="NZe3pGpmIBCSkbg1R9vZ-18" edge="1">
          <mxGeometry relative="1" as="geometry" />
        </mxCell>
        <mxCell id="hS6ivuc_pdptiDYRLIXN-17" style="edgeStyle=orthogonalEdgeStyle;rounded=0;orthogonalLoop=1;jettySize=auto;html=1;exitX=1;exitY=0.75;exitDx=0;exitDy=0;entryX=0;entryY=0.5;entryDx=0;entryDy=0;endArrow=none;startFill=0;" parent="1" source="NZe3pGpmIBCSkbg1R9vZ-5" target="hS6ivuc_pdptiDYRLIXN-15" edge="1">
          <mxGeometry relative="1" as="geometry">
            <Array as="points">
              <mxPoint x="250" y="330" />
              <mxPoint x="250" y="380" />
            </Array>
          </mxGeometry>
        </mxCell>
        <mxCell id="NZe3pGpmIBCSkbg1R9vZ-5" value="User" style="whiteSpace=wrap;html=1;align=center;" parent="1" vertex="1">
          <mxGeometry x="80" y="300" width="80" height="40" as="geometry" />
        </mxCell>
        <mxCell id="NZe3pGpmIBCSkbg1R9vZ-10" value="Title" style="ellipse;whiteSpace=wrap;html=1;align=center;" parent="1" vertex="1">
          <mxGeometry x="980" y="140" width="80" height="40" as="geometry" />
        </mxCell>
        <mxCell id="NZe3pGpmIBCSkbg1R9vZ-17" style="edgeStyle=orthogonalEdgeStyle;rounded=0;orthogonalLoop=1;jettySize=auto;html=1;endArrow=none;endFill=0;" parent="1" source="NZe3pGpmIBCSkbg1R9vZ-11" target="NZe3pGpmIBCSkbg1R9vZ-13" edge="1">
          <mxGeometry relative="1" as="geometry" />
        </mxCell>
        <mxCell id="NZe3pGpmIBCSkbg1R9vZ-11" value="synopsis" style="ellipse;whiteSpace=wrap;html=1;align=center;" parent="1" vertex="1">
          <mxGeometry x="820" y="220" width="80" height="40" as="geometry" />
        </mxCell>
        <mxCell id="NZe3pGpmIBCSkbg1R9vZ-16" style="edgeStyle=orthogonalEdgeStyle;rounded=0;orthogonalLoop=1;jettySize=auto;html=1;endArrow=none;endFill=0;" parent="1" source="NZe3pGpmIBCSkbg1R9vZ-12" target="NZe3pGpmIBCSkbg1R9vZ-10" edge="1">
          <mxGeometry relative="1" as="geometry" />
        </mxCell>
        <mxCell id="NZe3pGpmIBCSkbg1R9vZ-12" value="id" style="ellipse;whiteSpace=wrap;html=1;align=center;fontStyle=4;" parent="1" vertex="1">
          <mxGeometry x="820" y="140" width="80" height="40" as="geometry" />
        </mxCell>
        <mxCell id="NZe3pGpmIBCSkbg1R9vZ-13" value="duration" style="ellipse;whiteSpace=wrap;html=1;align=center;" parent="1" vertex="1">
          <mxGeometry x="980" y="220" width="80" height="40" as="geometry" />
        </mxCell>
        <mxCell id="NZe3pGpmIBCSkbg1R9vZ-23" style="edgeStyle=orthogonalEdgeStyle;rounded=0;orthogonalLoop=1;jettySize=auto;html=1;endArrow=none;endFill=0;" parent="1" source="NZe3pGpmIBCSkbg1R9vZ-18" target="NZe3pGpmIBCSkbg1R9vZ-19" edge="1">
          <mxGeometry relative="1" as="geometry" />
        </mxCell>
        <mxCell id="NZe3pGpmIBCSkbg1R9vZ-18" value="id" style="ellipse;whiteSpace=wrap;html=1;align=center;fontStyle=4;" parent="1" vertex="1">
          <mxGeometry y="140" width="80" height="40" as="geometry" />
        </mxCell>
        <mxCell id="NZe3pGpmIBCSkbg1R9vZ-19" value="name" style="ellipse;whiteSpace=wrap;html=1;align=center;" parent="1" vertex="1">
          <mxGeometry x="160" y="140" width="80" height="40" as="geometry" />
        </mxCell>
        <mxCell id="NZe3pGpmIBCSkbg1R9vZ-24" style="edgeStyle=orthogonalEdgeStyle;rounded=0;orthogonalLoop=1;jettySize=auto;html=1;entryX=0;entryY=0.5;entryDx=0;entryDy=0;endArrow=none;endFill=0;" parent="1" source="NZe3pGpmIBCSkbg1R9vZ-20" target="NZe3pGpmIBCSkbg1R9vZ-21" edge="1">
          <mxGeometry relative="1" as="geometry" />
        </mxCell>
        <mxCell id="NZe3pGpmIBCSkbg1R9vZ-20" value="email" style="ellipse;whiteSpace=wrap;html=1;align=center;" parent="1" vertex="1">
          <mxGeometry y="220" width="80" height="40" as="geometry" />
        </mxCell>
        <mxCell id="NZe3pGpmIBCSkbg1R9vZ-21" value="pasword" style="ellipse;whiteSpace=wrap;html=1;align=center;" parent="1" vertex="1">
          <mxGeometry x="160" y="220" width="80" height="40" as="geometry" />
        </mxCell>
        <mxCell id="NZe3pGpmIBCSkbg1R9vZ-25" value="id" style="ellipse;whiteSpace=wrap;html=1;align=center;fontStyle=4;" parent="1" vertex="1">
          <mxGeometry x="490" y="600" width="80" height="40" as="geometry" />
        </mxCell>
        <mxCell id="NZe3pGpmIBCSkbg1R9vZ-32" style="edgeStyle=orthogonalEdgeStyle;rounded=0;orthogonalLoop=1;jettySize=auto;html=1;endArrow=none;endFill=0;" parent="1" source="NZe3pGpmIBCSkbg1R9vZ-26" target="NZe3pGpmIBCSkbg1R9vZ-27" edge="1">
          <mxGeometry relative="1" as="geometry" />
        </mxCell>
        <mxCell id="NZe3pGpmIBCSkbg1R9vZ-26" value="user_id" style="ellipse;whiteSpace=wrap;html=1;align=center;" parent="1" vertex="1">
          <mxGeometry x="410" y="440" width="80" height="40" as="geometry" />
        </mxCell>
        <mxCell id="NZe3pGpmIBCSkbg1R9vZ-27" value="video_id" style="ellipse;whiteSpace=wrap;html=1;align=center;" parent="1" vertex="1">
          <mxGeometry x="570" y="440" width="80" height="40" as="geometry" />
        </mxCell>
        <mxCell id="NZe3pGpmIBCSkbg1R9vZ-33" style="edgeStyle=orthogonalEdgeStyle;rounded=0;orthogonalLoop=1;jettySize=auto;html=1;entryX=0;entryY=0.5;entryDx=0;entryDy=0;endArrow=none;endFill=0;" parent="1" source="NZe3pGpmIBCSkbg1R9vZ-28" target="NZe3pGpmIBCSkbg1R9vZ-29" edge="1">
          <mxGeometry relative="1" as="geometry" />
        </mxCell>
        <mxCell id="NZe3pGpmIBCSkbg1R9vZ-28" value="content" style="ellipse;whiteSpace=wrap;html=1;align=center;" parent="1" vertex="1">
          <mxGeometry x="410" y="520" width="80" height="40" as="geometry" />
        </mxCell>
        <mxCell id="NZe3pGpmIBCSkbg1R9vZ-29" value="approved" style="ellipse;whiteSpace=wrap;html=1;align=center;" parent="1" vertex="1">
          <mxGeometry x="570" y="520" width="80" height="40" as="geometry" />
        </mxCell>
        <mxCell id="NZe3pGpmIBCSkbg1R9vZ-34" value="id" style="ellipse;whiteSpace=wrap;html=1;align=center;fontStyle=4;" parent="1" vertex="1">
          <mxGeometry x="490" width="80" height="40" as="geometry" />
        </mxCell>
        <mxCell id="NZe3pGpmIBCSkbg1R9vZ-35" style="edgeStyle=orthogonalEdgeStyle;rounded=0;orthogonalLoop=1;jettySize=auto;html=1;endArrow=none;endFill=0;" parent="1" source="NZe3pGpmIBCSkbg1R9vZ-36" target="NZe3pGpmIBCSkbg1R9vZ-37" edge="1">
          <mxGeometry relative="1" as="geometry" />
        </mxCell>
        <mxCell id="NZe3pGpmIBCSkbg1R9vZ-36" value="user_id" style="ellipse;whiteSpace=wrap;html=1;align=center;" parent="1" vertex="1">
          <mxGeometry x="410" y="80" width="80" height="40" as="geometry" />
        </mxCell>
        <mxCell id="NZe3pGpmIBCSkbg1R9vZ-37" value="video_id" style="ellipse;whiteSpace=wrap;html=1;align=center;" parent="1" vertex="1">
          <mxGeometry x="570" y="80" width="80" height="40" as="geometry" />
        </mxCell>
        <mxCell id="NZe3pGpmIBCSkbg1R9vZ-40" style="edgeStyle=orthogonalEdgeStyle;rounded=0;orthogonalLoop=1;jettySize=auto;html=1;endArrow=none;endFill=0;" parent="1" source="NZe3pGpmIBCSkbg1R9vZ-38" target="NZe3pGpmIBCSkbg1R9vZ-39" edge="1">
          <mxGeometry relative="1" as="geometry" />
        </mxCell>
        <mxCell id="NZe3pGpmIBCSkbg1R9vZ-38" value="completed_at" style="ellipse;whiteSpace=wrap;html=1;align=center;" parent="1" vertex="1">
          <mxGeometry x="410" y="160" width="80" height="40" as="geometry" />
        </mxCell>
        <mxCell id="NZe3pGpmIBCSkbg1R9vZ-39" value="timestamps" style="ellipse;whiteSpace=wrap;html=1;align=center;" parent="1" vertex="1">
          <mxGeometry x="570" y="160" width="80" height="40" as="geometry" />
        </mxCell>
        <mxCell id="hS6ivuc_pdptiDYRLIXN-11" style="edgeStyle=orthogonalEdgeStyle;rounded=0;orthogonalLoop=1;jettySize=auto;html=1;entryX=0;entryY=0.5;entryDx=0;entryDy=0;" parent="1" source="hS6ivuc_pdptiDYRLIXN-9" target="NZe3pGpmIBCSkbg1R9vZ-4" edge="1">
          <mxGeometry relative="1" as="geometry" />
        </mxCell>
        <mxCell id="hS6ivuc_pdptiDYRLIXN-9" value="Does" style="shape=rhombus;perimeter=rhombusPerimeter;whiteSpace=wrap;html=1;align=center;" parent="1" vertex="1">
          <mxGeometry x="290" y="220" width="120" height="80" as="geometry" />
        </mxCell>
        <mxCell id="hS6ivuc_pdptiDYRLIXN-14" style="edgeStyle=orthogonalEdgeStyle;rounded=0;orthogonalLoop=1;jettySize=auto;html=1;entryX=1;entryY=0.5;entryDx=0;entryDy=0;" parent="1" source="hS6ivuc_pdptiDYRLIXN-12" target="NZe3pGpmIBCSkbg1R9vZ-3" edge="1">
          <mxGeometry relative="1" as="geometry">
            <mxPoint x="570" y="260" as="targetPoint" />
          </mxGeometry>
        </mxCell>
        <mxCell id="hS6ivuc_pdptiDYRLIXN-12" value="Have" style="shape=rhombus;perimeter=rhombusPerimeter;whiteSpace=wrap;html=1;align=center;" parent="1" vertex="1">
          <mxGeometry x="650" y="340" width="120" height="80" as="geometry" />
        </mxCell>
        <mxCell id="hS6ivuc_pdptiDYRLIXN-19" style="edgeStyle=orthogonalEdgeStyle;rounded=0;orthogonalLoop=1;jettySize=auto;html=1;entryX=0;entryY=0.5;entryDx=0;entryDy=0;" parent="1" source="hS6ivuc_pdptiDYRLIXN-15" target="NZe3pGpmIBCSkbg1R9vZ-3" edge="1">
          <mxGeometry relative="1" as="geometry" />
        </mxCell>
        <mxCell id="hS6ivuc_pdptiDYRLIXN-15" value="writes" style="shape=rhombus;perimeter=rhombusPerimeter;whiteSpace=wrap;html=1;align=center;" parent="1" vertex="1">
          <mxGeometry x="290" y="340" width="120" height="80" as="geometry" />
        </mxCell>
        <mxCell id="hS6ivuc_pdptiDYRLIXN-16" style="edgeStyle=orthogonalEdgeStyle;rounded=0;orthogonalLoop=1;jettySize=auto;html=1;exitX=1;exitY=0.25;exitDx=0;exitDy=0;entryX=0;entryY=0.5;entryDx=0;entryDy=0;endArrow=none;startFill=0;" parent="1" source="NZe3pGpmIBCSkbg1R9vZ-5" target="hS6ivuc_pdptiDYRLIXN-9" edge="1">
          <mxGeometry relative="1" as="geometry">
            <mxPoint x="270" y="340" as="targetPoint" />
            <Array as="points">
              <mxPoint x="250" y="310" />
              <mxPoint x="250" y="260" />
            </Array>
          </mxGeometry>
        </mxCell>
        <mxCell id="hS6ivuc_pdptiDYRLIXN-21" style="edgeStyle=orthogonalEdgeStyle;rounded=0;orthogonalLoop=1;jettySize=auto;html=1;" parent="1" source="hS6ivuc_pdptiDYRLIXN-20" target="NZe3pGpmIBCSkbg1R9vZ-4" edge="1">
          <mxGeometry relative="1" as="geometry" />
        </mxCell>
        <mxCell id="hS6ivuc_pdptiDYRLIXN-20" value="get" style="shape=rhombus;perimeter=rhombusPerimeter;whiteSpace=wrap;html=1;align=center;" parent="1" vertex="1">
          <mxGeometry x="650" y="220" width="120" height="80" as="geometry" />
        </mxCell>
        <mxCell id="rO474ZOs9r1TwtkXy-5N-3" value="- Hecho por: Illian Santiago Ortega Posso" style="text;strokeColor=none;fillColor=none;spacingLeft=4;spacingRight=4;overflow=hidden;rotatable=0;points=[[0,0.5],[1,0.5]];portConstraint=eastwest;fontSize=12;whiteSpace=wrap;html=1;align=left;" parent="1" vertex="1">
          <mxGeometry width="240" height="40" as="geometry" />
        </mxCell>
        <mxCell id="rO474ZOs9r1TwtkXy-5N-4" value="0,n" style="text;strokeColor=none;fillColor=none;spacingLeft=4;spacingRight=4;overflow=hidden;rotatable=0;points=[[0,0.5],[1,0.5]];portConstraint=eastwest;fontSize=12;whiteSpace=wrap;html=1;align=center;" parent="1" vertex="1">
          <mxGeometry x="450" y="230" width="40" height="30" as="geometry" />
        </mxCell>
        <mxCell id="rO474ZOs9r1TwtkXy-5N-5" value="1,1" style="text;strokeColor=none;fillColor=none;spacingLeft=4;spacingRight=4;overflow=hidden;rotatable=0;points=[[0,0.5],[1,0.5]];portConstraint=eastwest;fontSize=12;whiteSpace=wrap;html=1;align=center;" parent="1" vertex="1">
          <mxGeometry x="160" y="280" width="40" height="30" as="geometry" />
        </mxCell>
        <mxCell id="rO474ZOs9r1TwtkXy-5N-6" value="1:N" style="text;strokeColor=none;fillColor=none;spacingLeft=4;spacingRight=4;overflow=hidden;rotatable=0;points=[[0,0.5],[1,0.5]];portConstraint=eastwest;fontSize=12;whiteSpace=wrap;html=1;align=center;" parent="1" vertex="1">
          <mxGeometry x="330" y="190" width="40" height="30" as="geometry" />
        </mxCell>
        <mxCell id="rO474ZOs9r1TwtkXy-5N-7" value="1,1" style="text;strokeColor=none;fillColor=none;spacingLeft=4;spacingRight=4;overflow=hidden;rotatable=0;points=[[0,0.5],[1,0.5]];portConstraint=eastwest;fontSize=12;whiteSpace=wrap;html=1;align=center;" parent="1" vertex="1">
          <mxGeometry x="160" y="330" width="40" height="30" as="geometry" />
        </mxCell>
        <mxCell id="rO474ZOs9r1TwtkXy-5N-8" value="0,n" style="text;strokeColor=none;fillColor=none;spacingLeft=4;spacingRight=4;overflow=hidden;rotatable=0;points=[[0,0.5],[1,0.5]];portConstraint=eastwest;fontSize=12;whiteSpace=wrap;html=1;align=center;" parent="1" vertex="1">
          <mxGeometry x="450" y="380" width="40" height="30" as="geometry" />
        </mxCell>
        <mxCell id="rO474ZOs9r1TwtkXy-5N-9" value="1:N" style="text;strokeColor=none;fillColor=none;spacingLeft=4;spacingRight=4;overflow=hidden;rotatable=0;points=[[0,0.5],[1,0.5]];portConstraint=eastwest;fontSize=12;whiteSpace=wrap;html=1;align=center;" parent="1" vertex="1">
          <mxGeometry x="330" y="420" width="40" height="30" as="geometry" />
        </mxCell>
        <mxCell id="5tWJTwrDA3o9lswrMpXd-1" value="0,n" style="text;strokeColor=none;fillColor=none;spacingLeft=4;spacingRight=4;overflow=hidden;rotatable=0;points=[[0,0.5],[1,0.5]];portConstraint=eastwest;fontSize=12;whiteSpace=wrap;html=1;align=center;" parent="1" vertex="1">
          <mxGeometry x="570" y="380" width="40" height="30" as="geometry" />
        </mxCell>
        <mxCell id="5tWJTwrDA3o9lswrMpXd-2" value="0,n" style="text;strokeColor=none;fillColor=none;spacingLeft=4;spacingRight=4;overflow=hidden;rotatable=0;points=[[0,0.5],[1,0.5]];portConstraint=eastwest;fontSize=12;whiteSpace=wrap;html=1;align=center;" parent="1" vertex="1">
          <mxGeometry x="570" y="230" width="40" height="30" as="geometry" />
        </mxCell>
        <mxCell id="5tWJTwrDA3o9lswrMpXd-3" value="1,1" style="text;strokeColor=none;fillColor=none;spacingLeft=4;spacingRight=4;overflow=hidden;rotatable=0;points=[[0,0.5],[1,0.5]];portConstraint=eastwest;fontSize=12;whiteSpace=wrap;html=1;align=center;" parent="1" vertex="1">
          <mxGeometry x="860" y="280" width="40" height="30" as="geometry" />
        </mxCell>
        <mxCell id="5tWJTwrDA3o9lswrMpXd-4" value="1,1" style="text;strokeColor=none;fillColor=none;spacingLeft=4;spacingRight=4;overflow=hidden;rotatable=0;points=[[0,0.5],[1,0.5]];portConstraint=eastwest;fontSize=12;whiteSpace=wrap;html=1;align=center;" parent="1" vertex="1">
          <mxGeometry x="860" y="330" width="40" height="30" as="geometry" />
        </mxCell>
        <mxCell id="5tWJTwrDA3o9lswrMpXd-5" value="1:N" style="text;strokeColor=none;fillColor=none;spacingLeft=4;spacingRight=4;overflow=hidden;rotatable=0;points=[[0,0.5],[1,0.5]];portConstraint=eastwest;fontSize=12;whiteSpace=wrap;html=1;align=center;" parent="1" vertex="1">
          <mxGeometry x="690" y="420" width="40" height="30" as="geometry" />
        </mxCell>
        <mxCell id="5tWJTwrDA3o9lswrMpXd-6" value="1:N" style="text;strokeColor=none;fillColor=none;spacingLeft=4;spacingRight=4;overflow=hidden;rotatable=0;points=[[0,0.5],[1,0.5]];portConstraint=eastwest;fontSize=12;whiteSpace=wrap;html=1;align=center;" parent="1" vertex="1">
          <mxGeometry x="690" y="190" width="40" height="30" as="geometry" />
        </mxCell>
      </root>
    </mxGraphModel>
  </diagram>
  <diagram id="in6VYnh6T7tICGkf7cCr" name="PÃ¡gina-2">
    <mxGraphModel dx="430" dy="516" grid="1" gridSize="10" guides="1" tooltips="1" connect="1" arrows="1" fold="1" page="1" pageScale="1" pageWidth="1169" pageHeight="827" math="0" shadow="0">
      <root>
        <mxCell id="0" />
        <mxCell id="1" parent="0" />
        <mxCell id="MJjNR_Yci7lxgOXf_iKB-9" style="edgeStyle=orthogonalEdgeStyle;rounded=0;orthogonalLoop=1;jettySize=auto;html=1;entryX=0.5;entryY=1;entryDx=0;entryDy=0;endArrow=none;endFill=0;" edge="1" parent="1" source="MrVsbvv7z7nyn0YE6VYm-3" target="MrVsbvv7z7nyn0YE6VYm-27">
          <mxGeometry relative="1" as="geometry" />
        </mxCell>
        <mxCell id="MrVsbvv7z7nyn0YE6VYm-3" value="Talk" style="whiteSpace=wrap;html=1;align=center;" parent="1" vertex="1">
          <mxGeometry x="960" y="420" width="80" height="40" as="geometry" />
        </mxCell>
        <mxCell id="MrVsbvv7z7nyn0YE6VYm-4" style="edgeStyle=orthogonalEdgeStyle;rounded=0;orthogonalLoop=1;jettySize=auto;html=1;entryX=1;entryY=0.5;entryDx=0;entryDy=0;endArrow=none;endFill=0;" parent="1" source="MrVsbvv7z7nyn0YE6VYm-7" target="MrVsbvv7z7nyn0YE6VYm-32" edge="1">
          <mxGeometry relative="1" as="geometry" />
        </mxCell>
        <mxCell id="MJjNR_Yci7lxgOXf_iKB-4" style="edgeStyle=orthogonalEdgeStyle;rounded=0;orthogonalLoop=1;jettySize=auto;html=1;entryX=1;entryY=0.5;entryDx=0;entryDy=0;endArrow=none;endFill=0;" edge="1" parent="1" source="MrVsbvv7z7nyn0YE6VYm-7" target="MrVsbvv7z7nyn0YE6VYm-45">
          <mxGeometry relative="1" as="geometry" />
        </mxCell>
        <mxCell id="MrVsbvv7z7nyn0YE6VYm-7" value="Speaker" style="whiteSpace=wrap;html=1;align=center;" parent="1" vertex="1">
          <mxGeometry x="1400" y="420" width="80" height="40" as="geometry" />
        </mxCell>
        <mxCell id="MrVsbvv7z7nyn0YE6VYm-8" style="edgeStyle=orthogonalEdgeStyle;rounded=0;orthogonalLoop=1;jettySize=auto;html=1;entryX=0.5;entryY=1;entryDx=0;entryDy=0;endArrow=none;endFill=0;" parent="1" source="MrVsbvv7z7nyn0YE6VYm-9" target="MrVsbvv7z7nyn0YE6VYm-10" edge="1">
          <mxGeometry relative="1" as="geometry" />
        </mxCell>
        <mxCell id="eQjf6e2xb0UhZzwjhTvA-1" style="edgeStyle=orthogonalEdgeStyle;rounded=0;orthogonalLoop=1;jettySize=auto;html=1;entryX=1;entryY=0.5;entryDx=0;entryDy=0;endArrow=none;startFill=0;" parent="1" source="MrVsbvv7z7nyn0YE6VYm-9" target="MrVsbvv7z7nyn0YE6VYm-41" edge="1">
          <mxGeometry relative="1" as="geometry" />
        </mxCell>
        <mxCell id="MJjNR_Yci7lxgOXf_iKB-2" style="edgeStyle=orthogonalEdgeStyle;rounded=0;orthogonalLoop=1;jettySize=auto;html=1;entryX=0;entryY=0.5;entryDx=0;entryDy=0;endArrow=none;endFill=0;" edge="1" parent="1" source="MrVsbvv7z7nyn0YE6VYm-9" target="MrVsbvv7z7nyn0YE6VYm-47">
          <mxGeometry relative="1" as="geometry" />
        </mxCell>
        <mxCell id="MrVsbvv7z7nyn0YE6VYm-9" value="Conference" style="whiteSpace=wrap;html=1;align=center;" parent="1" vertex="1">
          <mxGeometry x="520" y="420" width="80" height="40" as="geometry" />
        </mxCell>
        <mxCell id="MrVsbvv7z7nyn0YE6VYm-10" value="id" style="ellipse;whiteSpace=wrap;html=1;align=center;fontStyle=4;" parent="1" vertex="1">
          <mxGeometry x="520" y="180" width="80" height="40" as="geometry" />
        </mxCell>
        <mxCell id="MrVsbvv7z7nyn0YE6VYm-11" style="edgeStyle=orthogonalEdgeStyle;rounded=0;orthogonalLoop=1;jettySize=auto;html=1;entryX=0.5;entryY=1;entryDx=0;entryDy=0;endArrow=none;startFill=0;" parent="1" source="MrVsbvv7z7nyn0YE6VYm-12" target="MrVsbvv7z7nyn0YE6VYm-40" edge="1">
          <mxGeometry relative="1" as="geometry" />
        </mxCell>
        <mxCell id="MrVsbvv7z7nyn0YE6VYm-12" value="Venue" style="shape=ext;margin=3;double=1;whiteSpace=wrap;html=1;align=center;" parent="1" vertex="1">
          <mxGeometry x="80" y="420" width="80" height="40" as="geometry" />
        </mxCell>
        <mxCell id="MrVsbvv7z7nyn0YE6VYm-13" style="edgeStyle=orthogonalEdgeStyle;rounded=0;orthogonalLoop=1;jettySize=auto;html=1;entryX=0;entryY=0.5;entryDx=0;entryDy=0;endArrow=none;endFill=0;" parent="1" source="MrVsbvv7z7nyn0YE6VYm-14" target="MrVsbvv7z7nyn0YE6VYm-15" edge="1">
          <mxGeometry relative="1" as="geometry" />
        </mxCell>
        <mxCell id="MrVsbvv7z7nyn0YE6VYm-14" value="name" style="ellipse;whiteSpace=wrap;html=1;align=center;" parent="1" vertex="1">
          <mxGeometry x="440" y="260" width="80" height="40" as="geometry" />
        </mxCell>
        <mxCell id="MrVsbvv7z7nyn0YE6VYm-15" value="city" style="ellipse;whiteSpace=wrap;html=1;align=center;" parent="1" vertex="1">
          <mxGeometry x="600" y="260" width="80" height="40" as="geometry" />
        </mxCell>
        <mxCell id="MrVsbvv7z7nyn0YE6VYm-16" style="edgeStyle=orthogonalEdgeStyle;rounded=0;orthogonalLoop=1;jettySize=auto;html=1;entryX=0;entryY=0.5;entryDx=0;entryDy=0;endArrow=none;endFill=0;" parent="1" source="MrVsbvv7z7nyn0YE6VYm-17" target="MrVsbvv7z7nyn0YE6VYm-18" edge="1">
          <mxGeometry relative="1" as="geometry" />
        </mxCell>
        <mxCell id="MrVsbvv7z7nyn0YE6VYm-17" value="country" style="ellipse;whiteSpace=wrap;html=1;align=center;" parent="1" vertex="1">
          <mxGeometry x="440" y="340" width="80" height="40" as="geometry" />
        </mxCell>
        <mxCell id="MrVsbvv7z7nyn0YE6VYm-18" value="cod_postal" style="ellipse;whiteSpace=wrap;html=1;align=center;" parent="1" vertex="1">
          <mxGeometry x="600" y="340" width="80" height="40" as="geometry" />
        </mxCell>
        <mxCell id="MrVsbvv7z7nyn0YE6VYm-19" style="edgeStyle=orthogonalEdgeStyle;rounded=0;orthogonalLoop=1;jettySize=auto;html=1;entryX=0;entryY=0.5;entryDx=0;entryDy=0;endArrow=none;endFill=0;" parent="1" source="MrVsbvv7z7nyn0YE6VYm-20" target="MrVsbvv7z7nyn0YE6VYm-21" edge="1">
          <mxGeometry relative="1" as="geometry" />
        </mxCell>
        <mxCell id="MrVsbvv7z7nyn0YE6VYm-20" value="name" style="ellipse;whiteSpace=wrap;html=1;align=center;" parent="1" vertex="1">
          <mxGeometry y="260" width="80" height="40" as="geometry" />
        </mxCell>
        <mxCell id="MrVsbvv7z7nyn0YE6VYm-21" value="description" style="ellipse;whiteSpace=wrap;html=1;align=center;" parent="1" vertex="1">
          <mxGeometry x="160" y="260" width="80" height="40" as="geometry" />
        </mxCell>
        <mxCell id="MrVsbvv7z7nyn0YE6VYm-22" style="edgeStyle=orthogonalEdgeStyle;rounded=0;orthogonalLoop=1;jettySize=auto;html=1;entryX=0;entryY=0.5;entryDx=0;entryDy=0;endArrow=none;endFill=0;" parent="1" source="MrVsbvv7z7nyn0YE6VYm-23" target="MrVsbvv7z7nyn0YE6VYm-24" edge="1">
          <mxGeometry relative="1" as="geometry" />
        </mxCell>
        <mxCell id="MrVsbvv7z7nyn0YE6VYm-23" value="start_date" style="ellipse;whiteSpace=wrap;html=1;align=center;" parent="1" vertex="1">
          <mxGeometry y="340" width="80" height="40" as="geometry" />
        </mxCell>
        <mxCell id="MrVsbvv7z7nyn0YE6VYm-24" value="end_date" style="ellipse;whiteSpace=wrap;html=1;align=center;" parent="1" vertex="1">
          <mxGeometry x="160" y="340" width="80" height="40" as="geometry" />
        </mxCell>
        <mxCell id="MrVsbvv7z7nyn0YE6VYm-27" value="id" style="ellipse;whiteSpace=wrap;html=1;align=center;fontStyle=4;" parent="1" vertex="1">
          <mxGeometry x="960" y="280" width="80" height="40" as="geometry" />
        </mxCell>
        <mxCell id="MrVsbvv7z7nyn0YE6VYm-28" style="edgeStyle=orthogonalEdgeStyle;rounded=0;orthogonalLoop=1;jettySize=auto;html=1;entryX=0;entryY=0.5;entryDx=0;entryDy=0;endArrow=none;endFill=0;" parent="1" source="MrVsbvv7z7nyn0YE6VYm-29" target="MrVsbvv7z7nyn0YE6VYm-30" edge="1">
          <mxGeometry relative="1" as="geometry" />
        </mxCell>
        <mxCell id="MrVsbvv7z7nyn0YE6VYm-29" value="title" style="ellipse;whiteSpace=wrap;html=1;align=center;" parent="1" vertex="1">
          <mxGeometry x="880" y="360" width="80" height="40" as="geometry" />
        </mxCell>
        <mxCell id="MrVsbvv7z7nyn0YE6VYm-30" value="description" style="ellipse;whiteSpace=wrap;html=1;align=center;" parent="1" vertex="1">
          <mxGeometry x="1040" y="360" width="80" height="40" as="geometry" />
        </mxCell>
        <mxCell id="MrVsbvv7z7nyn0YE6VYm-31" style="edgeStyle=orthogonalEdgeStyle;rounded=0;orthogonalLoop=1;jettySize=auto;html=1;entryX=0;entryY=0.5;entryDx=0;entryDy=0;endArrow=none;endFill=0;" parent="1" source="MrVsbvv7z7nyn0YE6VYm-32" target="MrVsbvv7z7nyn0YE6VYm-33" edge="1">
          <mxGeometry relative="1" as="geometry" />
        </mxCell>
        <mxCell id="MrVsbvv7z7nyn0YE6VYm-32" value="id" style="ellipse;whiteSpace=wrap;html=1;align=center;fontStyle=4;" parent="1" vertex="1">
          <mxGeometry x="1320" y="180" width="80" height="40" as="geometry" />
        </mxCell>
        <mxCell id="MrVsbvv7z7nyn0YE6VYm-33" value="name" style="ellipse;whiteSpace=wrap;html=1;align=center;" parent="1" vertex="1">
          <mxGeometry x="1480" y="180" width="80" height="40" as="geometry" />
        </mxCell>
        <mxCell id="MrVsbvv7z7nyn0YE6VYm-34" style="edgeStyle=orthogonalEdgeStyle;rounded=0;orthogonalLoop=1;jettySize=auto;html=1;entryX=0;entryY=0.5;entryDx=0;entryDy=0;endArrow=none;endFill=0;" parent="1" source="MrVsbvv7z7nyn0YE6VYm-35" target="MrVsbvv7z7nyn0YE6VYm-39" edge="1">
          <mxGeometry relative="1" as="geometry" />
        </mxCell>
        <mxCell id="MrVsbvv7z7nyn0YE6VYm-35" value="email" style="ellipse;whiteSpace=wrap;html=1;align=center;" parent="1" vertex="1">
          <mxGeometry x="1320" y="260" width="80" height="40" as="geometry" />
        </mxCell>
        <mxCell id="MrVsbvv7z7nyn0YE6VYm-36" style="edgeStyle=orthogonalEdgeStyle;rounded=0;orthogonalLoop=1;jettySize=auto;html=1;entryX=0;entryY=0.5;entryDx=0;entryDy=0;endArrow=none;endFill=0;" parent="1" source="MrVsbvv7z7nyn0YE6VYm-37" target="MrVsbvv7z7nyn0YE6VYm-38" edge="1">
          <mxGeometry relative="1" as="geometry" />
        </mxCell>
        <mxCell id="MrVsbvv7z7nyn0YE6VYm-37" value="biography" style="ellipse;whiteSpace=wrap;html=1;align=center;" parent="1" vertex="1">
          <mxGeometry x="1320" y="340" width="80" height="40" as="geometry" />
        </mxCell>
        <mxCell id="MrVsbvv7z7nyn0YE6VYm-38" value="twitter" style="ellipse;whiteSpace=wrap;html=1;align=center;" parent="1" vertex="1">
          <mxGeometry x="1480" y="340" width="80" height="40" as="geometry" />
        </mxCell>
        <mxCell id="MrVsbvv7z7nyn0YE6VYm-39" value="password" style="ellipse;whiteSpace=wrap;html=1;align=center;" parent="1" vertex="1">
          <mxGeometry x="1480" y="260" width="80" height="40" as="geometry" />
        </mxCell>
        <mxCell id="MrVsbvv7z7nyn0YE6VYm-40" value="&lt;span style=&quot;border-bottom: 1px dotted&quot;&gt;id&lt;/span&gt;" style="ellipse;whiteSpace=wrap;html=1;align=center;" parent="1" vertex="1">
          <mxGeometry x="80" y="120" width="80" height="40" as="geometry" />
        </mxCell>
        <mxCell id="eQjf6e2xb0UhZzwjhTvA-7" style="edgeStyle=orthogonalEdgeStyle;rounded=0;orthogonalLoop=1;jettySize=auto;html=1;entryX=1;entryY=0.5;entryDx=0;entryDy=0;" parent="1" source="MrVsbvv7z7nyn0YE6VYm-41" target="MrVsbvv7z7nyn0YE6VYm-12" edge="1">
          <mxGeometry relative="1" as="geometry" />
        </mxCell>
        <mxCell id="MrVsbvv7z7nyn0YE6VYm-41" value="Have" style="shape=rhombus;double=1;perimeter=rhombusPerimeter;whiteSpace=wrap;html=1;align=center;" parent="1" vertex="1">
          <mxGeometry x="280" y="400" width="120" height="80" as="geometry" />
        </mxCell>
        <mxCell id="MJjNR_Yci7lxgOXf_iKB-10" style="edgeStyle=orthogonalEdgeStyle;rounded=0;orthogonalLoop=1;jettySize=auto;html=1;entryX=1;entryY=0.5;entryDx=0;entryDy=0;" edge="1" parent="1" source="MrVsbvv7z7nyn0YE6VYm-45" target="MrVsbvv7z7nyn0YE6VYm-3">
          <mxGeometry relative="1" as="geometry" />
        </mxCell>
        <mxCell id="MrVsbvv7z7nyn0YE6VYm-45" value="Impart" style="shape=rhombus;perimeter=rhombusPerimeter;whiteSpace=wrap;html=1;align=center;" parent="1" vertex="1">
          <mxGeometry x="1160" y="400" width="120" height="80" as="geometry" />
        </mxCell>
        <mxCell id="MJjNR_Yci7lxgOXf_iKB-3" style="edgeStyle=orthogonalEdgeStyle;rounded=0;orthogonalLoop=1;jettySize=auto;html=1;entryX=0;entryY=0.5;entryDx=0;entryDy=0;" edge="1" parent="1" source="MrVsbvv7z7nyn0YE6VYm-47" target="MrVsbvv7z7nyn0YE6VYm-3">
          <mxGeometry relative="1" as="geometry" />
        </mxCell>
        <mxCell id="MrVsbvv7z7nyn0YE6VYm-47" value="In" style="shape=rhombus;perimeter=rhombusPerimeter;whiteSpace=wrap;html=1;align=center;" parent="1" vertex="1">
          <mxGeometry x="720" y="400" width="120" height="80" as="geometry" />
        </mxCell>
        <mxCell id="KBd_AIRCL0SxUD7mXiaL-1" value="- Hecho por: Illian Santiago Ortega Posso" style="text;strokeColor=none;fillColor=none;spacingLeft=4;spacingRight=4;overflow=hidden;rotatable=0;points=[[0,0.5],[1,0.5]];portConstraint=eastwest;fontSize=12;whiteSpace=wrap;html=1;align=left;" parent="1" vertex="1">
          <mxGeometry width="240" height="40" as="geometry" />
        </mxCell>
        <mxCell id="0eX2X0Dro__n2ullxCeJ-1" value="1,n" style="text;strokeColor=none;fillColor=none;spacingLeft=4;spacingRight=4;overflow=hidden;rotatable=0;points=[[0,0.5],[1,0.5]];portConstraint=eastwest;fontSize=12;whiteSpace=wrap;html=1;align=center;" parent="1" vertex="1">
          <mxGeometry x="160" y="410" width="40" height="30" as="geometry" />
        </mxCell>
        <mxCell id="0eX2X0Dro__n2ullxCeJ-2" value="1,1" style="text;strokeColor=none;fillColor=none;spacingLeft=4;spacingRight=4;overflow=hidden;rotatable=0;points=[[0,0.5],[1,0.5]];portConstraint=eastwest;fontSize=12;whiteSpace=wrap;html=1;align=center;" parent="1" vertex="1">
          <mxGeometry x="480" y="410" width="40" height="30" as="geometry" />
        </mxCell>
        <mxCell id="0eX2X0Dro__n2ullxCeJ-3" value="1:N" style="text;strokeColor=none;fillColor=none;spacingLeft=4;spacingRight=4;overflow=hidden;rotatable=0;points=[[0,0.5],[1,0.5]];portConstraint=eastwest;fontSize=12;whiteSpace=wrap;html=1;align=center;" parent="1" vertex="1">
          <mxGeometry x="320" y="370" width="40" height="30" as="geometry" />
        </mxCell>
        <mxCell id="0eX2X0Dro__n2ullxCeJ-5" value="1,n" style="text;strokeColor=none;fillColor=none;spacingLeft=4;spacingRight=4;overflow=hidden;rotatable=0;points=[[0,0.5],[1,0.5]];portConstraint=eastwest;fontSize=12;whiteSpace=wrap;html=1;align=center;" parent="1" vertex="1">
          <mxGeometry x="920" y="410" width="40" height="30" as="geometry" />
        </mxCell>
        <mxCell id="0eX2X0Dro__n2ullxCeJ-6" value="1:N" style="text;strokeColor=none;fillColor=none;spacingLeft=4;spacingRight=4;overflow=hidden;rotatable=0;points=[[0,0.5],[1,0.5]];portConstraint=eastwest;fontSize=12;whiteSpace=wrap;html=1;align=center;" parent="1" vertex="1">
          <mxGeometry x="760" y="374" width="40" height="30" as="geometry" />
        </mxCell>
        <mxCell id="0eX2X0Dro__n2ullxCeJ-7" value="1,n" style="text;strokeColor=none;fillColor=none;spacingLeft=4;spacingRight=4;overflow=hidden;rotatable=0;points=[[0,0.5],[1,0.5]];portConstraint=eastwest;fontSize=12;whiteSpace=wrap;html=1;align=center;" parent="1" vertex="1">
          <mxGeometry x="1040" y="410" width="40" height="30" as="geometry" />
        </mxCell>
        <mxCell id="0eX2X0Dro__n2ullxCeJ-8" value="1,1" style="text;strokeColor=none;fillColor=none;spacingLeft=4;spacingRight=4;overflow=hidden;rotatable=0;points=[[0,0.5],[1,0.5]];portConstraint=eastwest;fontSize=12;whiteSpace=wrap;html=1;align=center;" parent="1" vertex="1">
          <mxGeometry x="1360" y="405" width="40" height="30" as="geometry" />
        </mxCell>
        <mxCell id="awRxCFwF8sM6Gznh5N4--3" style="edgeStyle=orthogonalEdgeStyle;rounded=0;orthogonalLoop=1;jettySize=auto;html=1;entryX=1;entryY=0.5;entryDx=0;entryDy=0;endArrow=none;startFill=0;" parent="1" source="awRxCFwF8sM6Gznh5N4--1" target="awRxCFwF8sM6Gznh5N4--2" edge="1">
          <mxGeometry relative="1" as="geometry" />
        </mxCell>
        <mxCell id="awRxCFwF8sM6Gznh5N4--1" value="region" style="ellipse;whiteSpace=wrap;html=1;align=center;" parent="1" vertex="1">
          <mxGeometry x="160" y="180" width="80" height="40" as="geometry" />
        </mxCell>
        <mxCell id="awRxCFwF8sM6Gznh5N4--2" value="status" style="ellipse;whiteSpace=wrap;html=1;align=center;" parent="1" vertex="1">
          <mxGeometry y="180" width="80" height="40" as="geometry" />
        </mxCell>
        <mxCell id="MJjNR_Yci7lxgOXf_iKB-6" value="1,1" style="text;strokeColor=none;fillColor=none;spacingLeft=4;spacingRight=4;overflow=hidden;rotatable=0;points=[[0,0.5],[1,0.5]];portConstraint=eastwest;fontSize=12;whiteSpace=wrap;html=1;align=center;" vertex="1" parent="1">
          <mxGeometry x="600" y="410" width="40" height="30" as="geometry" />
        </mxCell>
        <mxCell id="MJjNR_Yci7lxgOXf_iKB-12" value="1:N" style="text;strokeColor=none;fillColor=none;spacingLeft=4;spacingRight=4;overflow=hidden;rotatable=0;points=[[0,0.5],[1,0.5]];portConstraint=eastwest;fontSize=12;whiteSpace=wrap;html=1;align=center;" vertex="1" parent="1">
          <mxGeometry x="1200" y="370" width="40" height="30" as="geometry" />
        </mxCell>
      </root>
    </mxGraphModel>
  </diagram>
</mxfile>
